<svg xmlns="http://www.w3.org/2000/svg" viewBox="0 0 512 457" role="img" aria-labelledby="title">
  <title id="title">Google Drive</title>
  <path fill="#0066DA" d="M336.7 295.5 256 157.6 175.3 295.5h161.4Z"/>
  <path fill="#00AC47" d="M256 157.6 336.7 295.5h160.8L336.9 18.2c-7.7-13.2-26.9-13.2-34.6 0L256 98.1v59.5Z"/>
  <path fill="#00832D" d="M497.5 295.5H336.7l-80.7 138h160.8c7.2 0 13.8-3.8 17.4-10l80.4-138c3.7-6.2-.9-14-8.1-14h-9Z"/>
  <path fill="#EA4335" d="M175.1 18.2 14.5 295.5h160.8L256 157.6V98.1l-46.3-79.9c-7.7-13.2-26.9-13.2-34.6 0Z"/>
  <path fill="#FFBA00" d="M14.5 295.5-2.6 325l80.4 138c3.6 6.2 10.2 10 17.4 10H256l-80.7-138H14.5Z" transform="translate(0 -15.5)"/>
  <path fill="#2684FC" d="M95.2 457h321.6L336.7 319H175.3L95.2 457Z"/>
</svg>
